<svg width="154" height="45" viewBox="0 0 154 45" fill="none" xmlns="http://www.w3.org/2000/svg">
<path d="M0 19C0.1697 21.8141 0.992731 24.5517 2.40516 27H33.9754C35.3878 24.5517 36.2108 21.8141 36.3805 19C36.3805 18.68 36.3805 18.37 36.3805 18.05H0.0505285C0 18.32 0 18.63 0 19Z" fill="#F15713"/>
<path d="M33.652 9C32.0951 6.29296 29.848 4.03728 27.1349 2.45805C24.4219 0.878828 21.3377 0.0312842 18.1902 0C15.0428 0.0312842 11.9586 0.878828 9.24554 2.45805C6.53248 4.03728 4.28539 6.29296 2.72852 9H33.652Z" fill="#F15713"/>
<path d="M8.61011 36C12.9455 41.15 17.4425 45 18.1903 45C18.9381 45 23.4352 41.15 27.7705 36H8.61011Z" fill="#F15713"/>
<path d="M51.629 17.9996C51.336 17.1396 51.7099 16.5796 52.6396 16.5796H53.923C54.2354 16.5608 54.5445 16.6503 54.7973 16.8329C55.05 17.0154 55.2305 17.2795 55.3075 17.5796L59.5923 29.2996L60.2694 31.8596H60.3503C60.5726 30.8596 60.7949 29.9996 61.0273 29.2996L65.2818 17.5896C65.3589 17.2895 65.5393 17.0254 65.7921 16.8429C66.0448 16.6603 66.354 16.5708 66.6663 16.5896H67.9497C68.8491 16.5896 69.2635 17.1496 68.9603 18.0096L62.7958 34.4496C62.715 34.7495 62.5322 35.0128 62.2782 35.1949C62.0241 35.377 61.7145 35.467 61.4012 35.4496H59.269C58.9554 35.4689 58.6447 35.3797 58.3903 35.1973C58.1359 35.0148 57.9535 34.7505 57.8744 34.4496L51.629 17.9996Z" fill="white"/>
<path d="M71.7504 32.14L72.1244 31.61C72.2176 31.4769 72.3373 31.3641 72.4761 31.2784C72.615 31.1927 72.77 31.136 72.9318 31.1116C73.0936 31.0873 73.2587 31.0959 73.417 31.1369C73.5753 31.1779 73.7234 31.2504 73.8524 31.35C75.2211 32.2991 76.8406 32.831 78.5112 32.88C80.4312 32.88 81.745 31.99 81.745 30.39C81.745 29.05 80.2089 28.15 78.2484 27.52C75.5098 26.59 71.902 25.25 71.9323 21.57C71.8919 20.7938 72.0504 20.02 72.3931 19.3207C72.7359 18.6214 73.2518 18.0191 73.8929 17.57C75.3358 16.5753 77.0672 16.0732 78.8244 16.14C80.6841 16.1101 82.5128 16.6137 84.0895 17.59C84.807 17.92 84.9182 18.48 84.5038 19.23L84.1602 19.78C83.8267 20.42 83.2608 20.53 82.513 20.19C81.3378 19.5074 80.0049 19.1355 78.6425 19.11C76.7224 19.11 75.439 19.97 75.439 21.5C75.439 22.83 76.9852 23.76 78.9053 24.4C81.7248 25.33 85.2517 26.55 85.2517 30.31C85.2647 31.077 85.0993 31.8368 84.7681 32.5304C84.4369 33.224 83.9488 33.8329 83.3417 34.31C81.941 35.4 80.1901 35.9539 78.4101 35.87C76.1143 35.9341 73.8638 35.2294 72.0233 33.87C71.3765 33.4 71.2957 32.84 71.7504 32.14Z" fill="white"/>
<path d="M88.6252 10.3697C88.6013 10.2031 88.6171 10.0333 88.6712 9.87374C88.7254 9.71422 88.8165 9.56942 88.9372 9.45091C89.058 9.3324 89.205 9.24345 89.3667 9.19116C89.5283 9.13886 89.7001 9.12468 89.8683 9.14973H91.0304C91.1959 9.12941 91.3639 9.14724 91.5213 9.20184C91.6787 9.25644 91.8212 9.34632 91.9376 9.46446C92.0541 9.58259 92.1413 9.72578 92.1926 9.88282C92.2438 10.0399 92.2576 10.2065 92.233 10.3697V23.4697H94.9918L99.6101 17.3697C99.762 17.1216 99.9776 16.9177 100.235 16.7789C100.492 16.6401 100.782 16.5714 101.075 16.5797H102.47C103.481 16.5797 103.824 17.2897 103.218 18.0697L97.9629 24.8797V24.9997L104.026 33.9997C104.592 34.8597 104.218 35.4897 103.198 35.4897H101.702C101.401 35.4956 101.104 35.4181 100.846 35.2662C100.587 35.1143 100.376 34.8938 100.237 34.6297L95.0424 26.6297H92.233V34.2197C92.2572 34.3833 92.2432 34.5503 92.192 34.7077C92.1408 34.865 92.0537 35.0087 91.9375 35.1275C91.8214 35.2464 91.6791 35.3372 91.5219 35.3931C91.3646 35.4489 91.1964 35.4683 91.0304 35.4497H89.8683C89.6995 35.473 89.5276 35.4572 89.3661 35.4036C89.2046 35.35 89.0578 35.2601 88.9373 35.1409C88.8169 35.0217 88.726 34.8765 88.6718 34.7166C88.6177 34.5568 88.6017 34.3867 88.6252 34.2197V10.3697Z" fill="white"/>
<path d="M107.727 10.37C107.703 10.2034 107.719 10.0335 107.773 9.87402C107.827 9.71449 107.918 9.5697 108.039 9.45118C108.16 9.33267 108.307 9.24372 108.468 9.19143C108.63 9.13914 108.802 9.12495 108.97 9.15H110.152C110.32 9.12495 110.492 9.13914 110.654 9.19143C110.815 9.24372 110.962 9.33267 111.083 9.45118C111.204 9.5697 111.295 9.71449 111.349 9.87402C111.403 10.0335 111.419 10.2034 111.395 10.37V29.83C111.395 31.39 111.961 32.21 113.123 32.32C113.263 32.3196 113.401 32.3478 113.53 32.403C113.658 32.4582 113.773 32.5391 113.868 32.6406C113.963 32.7421 114.036 32.862 114.081 32.9927C114.127 33.1234 114.145 33.2621 114.134 33.4V34.29C114.162 34.463 114.147 34.6401 114.093 34.8067C114.038 34.9733 113.944 35.1247 113.819 35.2486C113.694 35.3724 113.541 35.4652 113.373 35.5194C113.204 35.5735 113.025 35.5874 112.85 35.56C109.465 35.56 107.798 33.81 107.798 30.27L107.727 10.37Z" fill="white"/>
<path d="M118.851 25.4802C119.75 24.9991 120.713 24.6456 121.711 24.4302C123.567 23.9651 125.477 23.7531 127.391 23.8002H128.401V23.3202C128.401 20.5702 127.017 19.1902 124.268 19.1902C122.761 19.2184 121.286 19.6281 119.983 20.3802C119.845 20.4678 119.689 20.5259 119.527 20.5506C119.364 20.5754 119.198 20.5663 119.039 20.524C118.88 20.4816 118.732 20.4069 118.604 20.3047C118.476 20.2024 118.371 20.0749 118.296 19.9302L117.992 19.4102C117.887 19.2807 117.813 19.1288 117.776 18.9663C117.739 18.8039 117.741 18.6352 117.781 18.4735C117.821 18.3118 117.899 18.1615 118.007 18.0343C118.116 17.9071 118.252 17.8064 118.407 17.7402C120.281 16.6725 122.409 16.1201 124.571 16.1402C129.341 16.1402 132.05 18.7402 132.05 23.5002V34.1802C132.073 34.3471 132.057 34.5172 132.003 34.6771C131.949 34.8369 131.858 34.9821 131.737 35.1014C131.617 35.2206 131.47 35.3105 131.309 35.3641C131.147 35.4177 130.975 35.4334 130.807 35.4102H129.867C129.698 35.4339 129.527 35.4183 129.365 35.3647C129.204 35.3111 129.058 35.221 128.938 35.1015C128.818 34.982 128.728 34.8365 128.676 34.6765C128.623 34.5166 128.608 34.3466 128.634 34.1802V33.0602L128.745 31.9102H128.664C128.424 32.4149 128.107 32.8803 127.724 33.2902C127.11 34.0949 126.314 34.7459 125.4 35.1905C124.485 35.6351 123.478 35.8611 122.459 35.8502C120.823 35.8851 119.226 35.3468 117.952 34.3302C117.342 33.8439 116.855 33.224 116.529 32.5194C116.202 31.8148 116.046 31.0448 116.072 30.2702C116.063 29.2994 116.316 28.3438 116.805 27.5018C117.293 26.6598 118 25.962 118.851 25.4802ZM123.288 33.0002C124.009 33.0094 124.722 32.8449 125.364 32.5209C126.007 32.1968 126.56 31.723 126.976 31.1402C127.922 29.9653 128.426 28.5019 128.401 27.0002V26.1802H127.391C122.247 26.1802 119.69 27.4502 119.69 29.9802C119.721 31.6102 121.034 33.0002 123.288 33.0002Z" fill="white"/>
<path d="M138.255 18.8501C139.024 17.962 139.986 17.2572 141.069 16.788C142.152 16.3188 143.328 16.0973 144.51 16.1401C145.621 16.1032 146.723 16.3463 147.713 16.8466C148.703 17.3469 149.548 18.0879 150.169 19.0001L150.361 19.3401H150.432C150.355 18.921 150.318 18.4959 150.321 18.0701V10.3701C150.296 10.2015 150.312 10.0296 150.367 9.86826C150.422 9.70694 150.515 9.56084 150.638 9.44187C150.762 9.32291 150.912 9.23446 151.076 9.18375C151.24 9.13304 151.414 9.1215 151.584 9.15008H152.746C152.914 9.12503 153.086 9.13922 153.248 9.19151C153.409 9.2438 153.556 9.33275 153.677 9.45126C153.798 9.56977 153.889 9.71457 153.943 9.8741C153.997 10.0336 154.013 10.2035 153.989 10.3701V34.1801C154.013 34.347 153.997 34.5171 153.943 34.677C153.888 34.8368 153.797 34.982 153.677 35.1013C153.557 35.2205 153.41 35.3104 153.248 35.364C153.087 35.4176 152.915 35.4333 152.746 35.4101H151.736C150.907 35.4101 150.493 35.0401 150.493 34.2601V33.1801L150.573 32.2501H150.493C150.271 32.7102 149.982 33.1349 149.634 33.5101C148.963 34.2743 148.13 34.8809 147.192 35.2858C146.255 35.6906 145.239 35.8834 144.217 35.8501C143.054 35.896 141.896 35.6753 140.834 35.2052C139.772 34.7351 138.833 34.0283 138.093 33.1401C136.518 31.0959 135.724 28.5673 135.849 26.0001C135.711 23.4018 136.57 20.8477 138.255 18.8501ZM144.944 32.7301C148.067 32.7301 150.432 30.4601 150.432 25.9601C150.473 24.2866 149.974 22.6437 149.007 21.2701C148.567 20.63 147.97 20.1108 147.272 19.7611C146.573 19.4113 145.797 19.2424 145.015 19.2701C141.903 19.2701 139.568 21.8401 139.568 25.9701C139.568 30.1001 141.751 32.7301 144.944 32.7301Z" fill="white"/>
</svg>
